<?xml version="1.0" ?>
<!-- Uploaded to: SVG Repo, www.svgrepo.com, Generator: SVG Repo Mixer Tools -->
<svg width="800px" height="800px" viewBox="0 0 20 20" version="1.1" xmlns="http://www.w3.org/2000/svg">
<g id="layer1">
<path d="M 0 4 L 0 17 L 9 17 L 9 16 L 1 16 L 1 5 L 19 5 L 19 14 L 20 14 L 20 4 L 0 4 z M 14 6 L 14 11 L 18 11 L 18 6 L 14 6 z M 15 7 L 17 7 L 17 10 L 15 10 L 15 7 z M 3 11 L 3 12 L 11 12 L 11 11 L 3 11 z M 3 13 L 3 14 L 9 14 L 9 13 L 3 13 z M 14.5 13 L 11 16.5 L 14.5 20 L 16 20 L 13 17 L 20 17 L 20 16 L 13 16 L 16 13 L 14.5 13 z " style="fill:#222222; fill-opacity:1; stroke:none; stroke-width:0px;"/>
</g>
</svg>